<?xml version="1.0" encoding="iso-8859-1"?>
<!-- Generator: Adobe Illustrator 19.0.0, SVG Export Plug-In . SVG Version: 6.00 Build 0)  -->
<svg xmlns="http://www.w3.org/2000/svg" xmlns:xlink="http://www.w3.org/1999/xlink" version="1.1" id="Capa_1" x="0px" y="0px" viewBox="0 0 512.009 512.009" style="enable-background:new 0 0 512.009 512.009;" xml:space="preserve" width="512px" height="512px">
<g>
	<g>
		<path d="M497.016,75.337c-3.337-3.337-8.738-3.337-12.066,0l-54.306,54.306L382.37,81.37l54.306-54.306    c3.336-3.337,3.336-8.73,0-12.066C427,5.329,414.148,0.004,400.469,0.004s-26.53,5.325-36.198,14.993l-30.174,30.174    c-17.698,17.698-24.721,40.183-20.881,66.842c2.031,14.046-2.833,27.691-12.979,36.471L24.764,385.182    c-15.258,13.32-24.038,31.804-24.721,52.045c-0.683,20.241,6.827,39.27,21.146,53.589c13.722,13.722,31.77,21.188,51.055,21.188    c0.845,0,1.698-0.008,2.551-0.043c20.241-0.683,38.716-9.463,52.079-24.764l236.638-275.396    c8.806-10.163,22.451-15.019,36.489-13.005c26.65,3.831,49.143-3.174,66.842-20.881l30.174-30.174    c9.668-9.668,14.993-22.519,14.993-36.198C512.009,97.865,506.684,85.013,497.016,75.337z M484.949,135.676l-30.174,30.174    c-13.884,13.875-31.01,19.132-52.335,16.06c-19.823-2.859-39.202,4.139-51.849,18.748L113.971,476.019    c-10.172,11.648-24.294,18.355-39.757,18.884c-15.437,0.435-30.012-5.214-40.951-16.154c-10.94-10.94-16.674-25.481-16.154-40.943    c0.521-15.462,7.228-29.585,18.833-39.723l275.43-236.672c14.592-12.629,21.589-32,18.731-51.831    c-3.072-21.342,2.176-38.46,16.06-52.343l30.174-30.174c6.443-6.443,15.019-9.993,24.132-9.993c6.204,0,12.151,1.638,17.348,4.71    l-53.547,53.555c-1.604,1.596-2.5,3.772-2.5,6.033c0,2.261,0.896,4.429,2.5,6.033l60.339,60.339c3.337,3.337,8.73,3.337,12.066,0    l53.538-53.538C497.929,107.285,496.171,124.454,484.949,135.676z" fill="#FFFFFF"/>
	</g>
</g>
<g>
	<g>
		<path d="M93.611,418.411c-13.303-13.303-34.961-13.312-48.273,0c-13.312,13.312-13.312,34.961,0,48.273    c6.647,6.656,15.394,9.984,24.132,9.984c8.738,0,17.476-3.328,24.141-9.984c6.451-6.451,10.001-15.019,10.001-24.141    C103.612,433.429,100.062,424.853,93.611,418.411z M81.545,454.618c-6.656,6.647-17.485,6.647-24.141,0    c-6.656-6.656-6.656-17.485,0-24.141c3.328-3.319,7.697-4.983,12.066-4.983c4.369,0,8.738,1.664,12.075,4.983    c3.226,3.226,5.001,7.509,5.001,12.066C86.545,447.108,84.77,451.392,81.545,454.618z" fill="#FFFFFF"/>
	</g>
</g>
<g>
	<g>
		<path d="M338.842,173.171c-3.328-3.337-8.738-3.337-12.066,0l-59.733,59.733c-3.337,3.337-3.337,8.73,0,12.066    c1.664,1.664,3.849,2.5,6.033,2.5c2.185,0,4.369-0.836,6.033-2.5l59.733-59.733C342.178,181.901,342.178,176.508,338.842,173.171z    " fill="#FFFFFF"/>
	</g>
</g>
<g>
	<g>
		<path d="M381.508,130.505c-3.328-3.337-8.738-3.337-12.066,0l-17.067,17.067c-3.337,3.337-3.337,8.73,0,12.066    c1.664,1.664,3.849,2.5,6.033,2.5c2.185,0,4.369-0.836,6.033-2.5l17.067-17.067C384.845,139.234,384.845,133.841,381.508,130.505z    " fill="#FFFFFF"/>
	</g>
</g>
<g>
	<g>
		<path d="M268.587,267.567l-24.132-24.132c-3.234-3.234-8.439-3.336-11.81-0.247L81.792,381.965    c-2.133,1.963-3.132,4.873-2.637,7.723c0.495,2.85,2.406,5.265,5.069,6.4c2.057,0.87,4.241,1.69,6.485,2.517    c5.649,2.099,11.494,4.267,14.967,7.731c3.473,3.473,5.641,9.318,7.731,14.967c0.828,2.244,1.638,4.429,2.517,6.485    c1.135,2.662,3.541,4.565,6.4,5.06c0.486,0.085,0.973,0.128,1.451,0.128c2.364,0,4.642-0.981,6.272-2.748l138.786-150.852    C271.932,276.015,271.821,270.801,268.587,267.567z M126.771,408.589c-2.125-5.043-4.838-10.112-9.028-14.31    c-4.198-4.198-9.267-6.895-14.31-9.028l134.741-123.964l12.561,12.561L126.771,408.589z" fill="#FFFFFF"/>
	</g>
</g>
<g>
</g>
<g>
</g>
<g>
</g>
<g>
</g>
<g>
</g>
<g>
</g>
<g>
</g>
<g>
</g>
<g>
</g>
<g>
</g>
<g>
</g>
<g>
</g>
<g>
</g>
<g>
</g>
<g>
</g>
</svg>
